<svg xmlns="http://www.w3.org/2000/svg" xml:space="preserve" viewBox="0 0 100 100"><style>.st95{fill:red}</style><g id="Layer_2"><path d="M50 2.5C23.766 2.5 2.5 23.823 2.5 50.126c2.502 63.175 92.507 63.157 95-.001C97.5 23.823 76.233 2.5 50 2.5zm0 74.899c-15.036 0-27.27-12.233-27.27-27.27.74-18.662 14.654-27.134 27.269-27.134h.002c12.616.001 26.531 8.473 27.267 27.073C77.27 65.167 65.036 77.399 50 77.399z" class="st95"/><path d="M50.002 26.103c-15.946-.001-23.704 12.486-24.165 24.088.001 13.262 10.84 24.101 24.163 24.101S74.162 63.453 74.162 50.13c-.457-11.539-8.214-24.025-24.16-24.027z" class="st95"/><path d="M41.055 52.528v10.46l21.802-13.417-21.802-12.299v15.256z" style="fill:#f1f1f1"/></g></svg>